<?xml version="1.0" encoding="UTF-8"?>
<svg width="169px" height="124px" viewBox="0 0 169 124" version="1.1" xmlns="http://www.w3.org/2000/svg" xmlns:xlink="http://www.w3.org/1999/xlink">
    <!-- Generator: Sketch 59.1 (86144) - https://sketch.com -->
    <title>Logo header</title>
    <desc>Created with Sketch.</desc>
    <defs>
        <polygon id="path-1" points="0 0.4278 128.812945 0.4278 128.812945 124 0 124"/>
        <polygon id="path-3" points="0.00421984736 0.354145355 80.8687709 0.354145355 80.8687709 24.814174 0.00421984736 24.814174"/>
    </defs>
    <g id="Collectif" stroke="none" stroke-width="1" fill="none" fill-rule="evenodd">
        <g id="collectif--niv-2-*1440" transform="translate(-48.000000, -22.000000)">
            <g id="Logo-header" transform="translate(48.000000, 22.000000)">
                <g id="Group-37">
                    <g id="Group-3">
                        <mask id="mask-2" fill="white">
                            <use xlink:href="#path-1"/>
                        </mask>
                        <g id="Clip-2"/>
                        <path d="M128.812945,122.985726 C128.833072,121.5634 127.846949,120.649933 127.143808,120.18103 C126.940315,120.153015 126.741819,120.124541 126.54741,120.090096 L124.962164,119.816378 C123.250188,119.520156 121.479618,119.214289 119.736755,118.885 C118.132886,118.58097 116.572167,118.218615 115.39209,117.937548 C113.309012,117.441089 111.16734,116.910644 108.844886,116.316822 C107.750202,116.035756 106.64371,115.732644 105.573555,115.439178 C105.095255,115.30737 104.616956,115.176941 104.138202,115.04697 C103.771643,114.947311 103.404174,114.849948 103.038069,114.753504 C102.221826,114.537193 101.378329,114.313533 100.54528,114.068289 C99.7122306,113.821667 98.8809982,113.564481 98.0502201,113.307296 C96.8919454,112.947696 95.6932447,112.575696 94.5158926,112.245948 C92.9124771,111.79817 91.1800616,111.361874 88.8998504,110.833267 C87.6062165,110.532452 86.2762447,110.289044 84.9135687,110.044719 C83.5059243,109.793044 82.4203257,109.624037 81.3924137,109.496822 C79.4542342,109.255711 77.8771637,109.086704 76.4277306,108.967296 C74.7021285,108.823548 73.1323257,108.734911 71.6279313,108.694037 C70.2829701,108.658215 68.9275616,108.691281 67.4213504,108.736748 C66.1236285,108.775326 64.7287025,108.827222 63.3278715,108.942037 C61.7476215,109.072007 60.0456391,109.247904 58.1269912,109.47937 C56.4749736,109.67823 54.7652694,109.91383 53.045118,110.180659 C51.5470827,110.412585 50.0208856,110.672985 48.5446532,110.925578 L46.2349173,111.318704 C44.9649032,111.532719 43.6531004,111.753622 42.3680968,111.991059 C41.2893116,112.189919 40.2100722,112.401178 39.1317412,112.613356 C38.2814313,112.780067 37.4315757,112.946319 36.5812658,113.1066 C35.5279173,113.306378 34.4745687,113.498348 33.4203116,113.691237 C32.7371567,113.814778 32.0540018,113.940156 31.3713011,114.066452 C30.5664137,114.215252 29.7628891,114.367267 28.9580018,114.518363 C27.4013715,114.81137 25.7925053,115.114022 24.2054419,115.39463 C22.8890968,115.627015 21.5536743,115.836437 20.2623116,116.037593 C19.7776532,116.11383 19.2934489,116.189148 18.8096989,116.266304 C18.1074665,116.377444 17.4043257,116.487667 16.7025475,116.59743 C15.9535299,116.714541 15.2040581,116.832111 14.4545863,116.9506 C14.216118,116.988259 13.9776496,117.032348 13.7387271,117.074141 C13.3648996,117.140733 12.9778996,117.211 12.5859032,117.263356 C12.1407623,117.323059 11.712882,117.360719 11.2604736,117.401133 C11.0696989,117.417667 10.8757447,117.4342 10.6786109,117.453489 L9.54123063,117.563252 L9.51397711,116.167104 C9.51079754,116.017385 9.50852641,115.889252 9.50761796,115.761119 C9.49989613,114.963844 9.4939912,114.166111 9.48854049,113.369296 C9.47491373,111.614467 9.4617412,109.858719 9.43766725,108.103889 C9.38815669,104.474363 9.33228697,101.253119 9.26869542,98.2559926 C9.21963908,95.9459185 9.16331514,93.4815333 9.05838908,90.9905111 C8.98117077,89.1548519 8.87579049,87.2861259 8.77313556,85.4789407 C8.72998415,84.7055481 8.68637852,83.9321556 8.64368134,83.1573852 C8.62006162,82.7105259 8.5982588,82.2618296 8.57736444,81.8126741 C8.530125,80.8128667 8.48152289,79.7790741 8.3974912,78.7765111 C8.09770246,75.197963 7.73523063,70.9603778 7.32006866,66.6571185 C7.12929401,64.6735778 6.87674472,62.6601852 6.63327993,60.7129259 L6.52426585,59.8430889 C6.42660739,59.0572963 6.30987148,58.2558889 6.19722359,57.4806593 C6.10456162,56.8464222 6.01235387,56.2117259 5.92786796,55.5751926 C5.5290581,52.5675037 4.99534331,49.3797852 4.29492782,45.8297111 C3.87068134,43.6803778 3.39419894,41.5048667 2.93316021,39.4014593 C2.75828345,38.5986741 2.58249824,37.7963481 2.40943838,36.993563 C2.30814613,36.5237407 2.19640669,36.0575926 2.07876232,35.5666444 C2.02243838,35.3301259 1.96429754,35.0880963 1.90524824,34.8373407 L1.68812852,33.9114741 L2.57205106,33.5844815 C2.63064613,33.5628963 2.68560739,33.5413111 2.73829754,33.5201852 C2.87774472,33.4646148 3.03536092,33.4016963 3.2125088,33.3557704 C4.05146303,33.137163 4.88996303,32.9217704 5.7298257,32.7063778 L6.75773768,32.4423037 C7.3673081,32.2856963 7.97597007,32.1249556 8.58554049,31.9646741 C9.96320599,31.6018593 11.3872025,31.2266444 12.801206,30.8987333 C14.5109102,30.5023926 16.2483222,30.163 17.9285018,29.8346296 L18.8692025,29.6504667 C20.3767764,29.3537852 21.9352236,29.047 23.484132,28.8072667 C25.0412165,28.5656963 26.6214665,28.3723481 28.1490264,28.1835926 L28.9071285,28.0908222 C30.3642835,27.9103333 31.8396074,27.7505111 33.1078046,27.6145704 C33.9631109,27.5231778 34.8184173,27.4359185 35.6737236,27.3491185 C36.6171496,27.2526741 37.5605757,27.1562296 38.5035475,27.0538148 C40.5275757,26.8342889 42.9236144,26.5711333 45.3464525,26.2863926 C46.0041708,26.209237 46.6791496,26.1137111 47.3314173,26.0204815 C47.7906391,25.9561852 48.2489525,25.8905111 48.7081743,25.8312667 C49.1292412,25.7756963 49.5503081,25.7265556 49.9704665,25.6769556 C50.4919173,25.6149556 51.0124595,25.5547926 51.5320933,25.4826889 C52.2474982,25.3830296 52.9624489,25.2746444 53.6769454,25.1658 C54.1561532,25.093237 54.6349067,25.0202148 55.1141144,24.9504074 C55.5796954,24.8819778 56.0457306,24.8172222 56.5117658,24.7520074 C57.2035511,24.6546444 57.8957905,24.5582 58.5871215,24.4521111 C59.084044,24.3758741 59.5814208,24.2858593 60.0778891,24.1972222 C60.4044771,24.138437 60.7310651,24.0796519 61.0585616,24.0245407 C61.3560792,23.9744815 61.6554137,23.9271778 61.9538398,23.8803333 C62.4226004,23.8073111 62.8663785,23.737963 63.312882,23.653 C64.3040018,23.4656222 65.3146532,23.2552815 66.2926004,23.0513704 L66.5778539,22.9930444 C66.9276074,22.9200222 67.2773609,22.8428667 67.626206,22.7657111 C68.0531778,22.6720222 68.4796954,22.5783333 68.9075757,22.4910741 C69.343632,22.4028963 69.7796884,22.3234444 70.2157447,22.2444519 C70.4814665,22.1962296 70.7476426,22.1475481 71.0138187,22.0970296 L71.4603222,22.014363 C71.9286285,21.9271037 72.3724067,21.8448963 72.8130053,21.7424815 C73.298118,21.6295037 73.7827764,21.5045852 74.2669806,21.3787481 C74.6176426,21.2882741 74.9678504,21.1978 75.3194208,21.1114593 C75.7913609,20.9948074 76.2628468,20.8827481 76.7343327,20.7706889 C77.3902342,20.6145407 78.0461356,20.4588519 78.7002201,20.2930593 C80.1401144,19.9274889 81.598632,19.5453852 83.0367095,19.1573111 C84.5883433,18.7384667 86.1590546,18.2984963 87.6788926,17.872763 C88.7345123,17.5765407 89.6552271,17.3120074 90.4946356,17.0612519 L90.9057095,16.9390889 C92.2883715,16.5275926 93.7178187,16.1018593 95.1159243,15.6637259 C95.6732588,15.4882889 96.2442201,15.2921852 96.7965581,15.1020519 C97.2394278,14.9495778 97.683206,14.7971037 98.1278926,14.6519778 C98.6974912,14.4659778 99.2679982,14.2873259 99.8380511,14.1091333 C100.383576,13.9392074 100.927738,13.7679037 101.4719,13.5920074 C102.567491,13.2356222 103.649456,12.8728074 104.685998,12.5145852 C105.158393,12.3520074 105.628516,12.1807037 106.099093,12.0098593 C106.580572,11.8353407 107.061143,11.660363 107.544893,11.4936519 C108.113129,11.2966296 108.683636,11.1083333 109.254143,10.9195778 C109.676118,10.7804222 110.098093,10.6403481 110.520523,10.4979778 C110.875727,10.3767333 111.231386,10.2508963 111.58659,10.1250593 C111.899551,10.0143778 112.211604,9.9036963 112.525474,9.79668889 C112.557269,9.78474815 112.589519,9.77142963 112.622678,9.75811111 C112.713523,9.72091111 112.82935,9.67314815 112.965164,9.63548889 C114.618544,8.87403704 116.30372,7.80304444 116.474509,5.68677778 C116.632125,3.73262963 116.079333,1.1966 115.382097,0.460866667 C115.253551,0.45857037 115.126822,0.447088889 114.998276,0.4278 C114.810227,0.449385185 114.636259,0.476940741 114.46865,0.510466667 C113.716452,0.662022222 112.969252,0.953651852 112.179354,1.26227407 C111.977678,1.34080741 111.776456,1.4198 111.574326,1.49603704 C110.638621,1.8515037 109.688382,2.17895556 108.769484,2.49584444 C108.258026,2.67265926 107.747477,2.84855556 107.237836,3.0295037 C106.760445,3.19988889 106.283963,3.37578519 105.807481,3.55076296 C105.393681,3.70415556 104.979428,3.85662963 104.56472,4.00497037 C103.85204,4.26123704 103.138907,4.51566667 102.425773,4.76825926 C101.430565,5.12280741 100.434449,5.47643704 99.4401496,5.83695556 C98.8641919,6.045 98.2900511,6.25947407 97.715456,6.47394815 C96.8451602,6.79726667 95.9462482,7.13344444 95.0514243,7.44344444 C94.3410158,7.69006667 93.6233398,7.91280741 92.9288292,8.1282 C92.4464419,8.277 91.9631461,8.42671852 91.4816673,8.5847037 C91.2350229,8.66553333 90.9838363,8.76473333 90.7167518,8.87036296 C90.4696532,8.96772593 90.2221004,9.06600741 89.9722764,9.15234815 C89.4403785,9.33651111 88.9080264,9.51240741 88.3756743,9.6883037 C88.0386391,9.7999037 87.7020581,9.91058519 87.3659313,10.023563 C87.1074771,10.1108222 86.8485687,10.2012963 86.5910229,10.2908519 C86.1549665,10.4428667 85.7198187,10.5944222 85.281037,10.7326593 C84.879956,10.8598741 84.4775123,10.978363 84.073706,11.0954741 C83.6957905,11.2061556 83.3169665,11.3159185 82.9399595,11.4357852 C82.396706,11.6066296 81.8557236,11.784363 81.314287,11.9611778 C80.5044032,12.2261704 79.6668116,12.4998889 78.8346708,12.751563 C78.3395651,12.900363 77.8467306,13.0216074 77.3693398,13.1368815 C76.9623539,13.2356222 76.577625,13.3297704 76.194713,13.4395333 C75.4170792,13.6622741 74.6430792,13.8978741 73.8681708,14.1339333 C73.3276426,14.2983481 72.7884771,14.462763 72.2470405,14.6225852 C72.0131144,14.6914741 71.7891813,14.7433704 71.5729701,14.7934296 C71.4139912,14.8297111 71.2559208,14.8659926 71.0983046,14.9100815 C70.7294736,15.0115778 70.3620053,15.1181259 69.9949912,15.2237556 C69.4090405,15.3923037 68.8021954,15.5672815 68.1962588,15.7248074 C67.2973468,15.9585704 66.3852623,16.1771778 65.5036109,16.3893556 L64.0201109,16.7471185 C63.1448187,16.9602148 62.2695264,17.1728519 61.3924173,17.3753852 C60.6674736,17.5439333 59.940713,17.7005407 59.2134982,17.8576074 L58.7420123,17.959563 C57.6991109,18.1859778 56.6548468,18.4123926 55.6105827,18.6319185 C54.6889595,18.8252667 53.7673363,19.0131037 52.8448046,19.1981852 C52.3873996,19.2904963 51.9295405,19.375 51.4712271,19.4562889 L49.5566673,19.7966 C46.9407835,20.2609111 44.3262623,20.7252222 41.7094701,21.1821852 C41.2379842,21.2639333 40.7655898,21.3309852 40.3086391,21.3966593 C39.8893891,21.4559037 39.4701391,21.5156074 39.0513433,21.5867926 C38.3077764,21.7130889 37.5660264,21.8499481 36.823368,21.9863481 C36.3409806,22.0749852 35.8576849,22.1640815 35.3748433,22.2504222 C34.8688363,22.3408963 34.3619208,22.4194296 33.8554595,22.4993407 L32.4101144,22.7271333 C31.0710581,22.9393111 29.7329102,23.1505704 28.3943081,23.3498889 C27.866044,23.4288815 27.3373257,23.4959333 26.8076989,23.5629852 C26.1504349,23.6465704 25.4709137,23.7329111 24.8136496,23.840837 C23.7144243,24.0213259 22.5920335,24.246363 21.5055264,24.4645111 L20.4980546,24.6656667 C19.1635405,24.932037 17.7826954,25.2071333 16.4359173,25.5093259 C15.0001109,25.8321852 13.4716426,26.2009704 11.6243081,26.6717111 C9.63661796,27.1787333 7.69389613,27.6926444 5.8497412,28.1996667 C4.96536444,28.4426148 4.06281866,28.722763 3.19025176,28.9937259 L2.41352641,29.2343778 C2.02652641,29.3537852 1.66178345,29.4658444 1.32429401,29.6132667 C0.869614437,29.8121259 0.239603873,30.2860815 0.0265721831,32.1029111 C-0.0374735915,32.6521852 0.0129454225,33.2602444 0.190547535,34.0740519 C1.16940317,38.5522889 1.88798768,42.2851481 2.44986444,45.8200667 L2.58022711,46.6352519 C2.91408275,48.7299333 3.25974824,50.8958 3.55499472,53.0419185 C3.90111444,55.5568222 4.21452993,58.1024963 4.48570246,60.6109704 C4.78458275,63.3798444 5.0203257,65.897963 5.20519542,68.3086148 C5.44638908,71.4494889 5.7548081,75.5956815 5.99327641,79.8043333 C6.25990669,84.4952074 6.41616021,89.5649704 6.46885035,95.3034148 C6.47702641,96.2044815 6.48656514,97.1046296 6.49610387,98.0056963 C6.52381162,100.6446 6.55288204,103.373519 6.55106514,106.059267 C6.55106514,108.1218 6.52199472,110.214644 6.49383275,112.239978 C6.47884331,113.333015 6.4643081,114.42743 6.45340669,115.522304 L6.45068134,115.746422 C6.44068838,116.722807 6.43069542,117.732259 6.45340669,118.715074 C6.48383979,120.1002 7.28100528,121.104141 8.01503345,121.344793 C8.37114613,121.462363 8.75314965,121.539978 9.15877289,121.621726 C9.31593486,121.654793 9.47355106,121.686481 9.62935035,121.720926 L10.7267588,121.571667 C12.035382,121.393933 13.3449137,121.2162 14.6526285,121.028822 C16.4250158,120.773933 17.7917799,120.566807 19.0854137,120.357385 C19.950713,120.216852 20.8169208,120.062541 21.6822201,119.909148 C22.1786884,119.820052 22.6751567,119.732333 23.1725335,119.645993 C23.9746954,119.507756 24.7777658,119.370437 25.5808363,119.233578 C27.124294,118.969963 28.6668433,118.706807 30.2084842,118.43263 C31.9381743,118.125844 33.634706,117.797933 35.0655158,117.519163 C35.8140792,117.373119 36.5612799,117.219726 37.3089349,117.067252 C38.2555405,116.874363 39.2339419,116.674585 40.2000792,116.490881 C40.9931567,116.340704 41.7957729,116.204763 42.5715898,116.074333 C43.2279454,115.963652 43.8843011,115.852511 44.5397482,115.732644 C45.2660546,115.599 45.9919067,115.457548 46.718213,115.316096 C47.5635264,115.150763 48.4379102,114.979919 49.3032095,114.824689 C50.2648046,114.652926 51.2386637,114.499533 52.1811813,114.351193 C52.565456,114.29103 52.9501849,114.230867 53.3349137,114.169785 L54.637632,113.958526 C55.8667658,113.758748 57.1390511,113.552081 58.3940757,113.364244 C58.9159806,113.28617 59.4365229,113.231978 59.940713,113.178704 C60.2532201,113.146096 60.5652729,113.114407 60.8777799,113.07583 C61.2656884,113.028985 61.6522342,112.97617 62.0392342,112.924274 C62.6787835,112.837933 63.3401356,112.748378 64.000125,112.681785 C64.6882764,112.612437 65.3777905,112.570644 66.0445933,112.529311 C66.3375687,112.510941 66.6300898,112.493489 66.9226109,112.472363 C67.178794,112.454911 67.4349771,112.435622 67.6911602,112.416333 C68.2621215,112.373163 68.8521602,112.328615 69.4412905,112.303356 C70.6913187,112.250541 71.8318785,112.206911 72.9810687,112.20783 C74.4300475,112.209207 76.0711637,112.211044 77.684118,112.301519 C79.2116778,112.386941 80.7101673,112.561459 82.1591461,112.730467 C83.4305229,112.877889 84.9108433,113.057459 86.3888926,113.313726 C88.7753926,113.727978 90.8893574,114.130289 92.8502482,114.544081 C94.7125722,114.938126 96.4127377,115.351 98.0479489,115.807044 C99.6931532,116.265385 101.353347,116.771489 102.958579,117.261978 C103.625836,117.46497 104.293093,117.668422 104.96035,117.869119 L105.988262,118.176822 C107.097026,118.508867 108.205336,118.840911 109.312283,119.183519 C109.881882,119.359415 110.450572,119.544037 111.018808,119.7282 C111.925896,120.023044 112.863417,120.327533 113.781407,120.587015 C115.610118,121.105059 117.620519,121.6378 119.928893,122.215089 C121.927484,122.714763 123.89428,123.168052 126.075016,123.666807 L127.480389,123.990585 C128.044537,124.025489 128.415639,123.965326 128.586428,123.808259 C128.775386,123.633281 128.808998,123.217652 128.812945,122.985726" id="Fill-1" fill="#EB615C" mask="url(#mask-2)"/>
                    </g>
                    <path d="M66.1332874,89.7941163 C64.7952425,89.5200328 64.4049409,89.056759 64.4725376,87.7474646 C65.7244661,87.5388701 66.9939883,87.3123268 68.2690664,87.1202258 C69.2668127,86.9698437 70.2696519,86.858755 71.2748061,87.0794771 C71.6433472,87.1609745 71.9827198,87.2846759 72.1155983,87.763473 C70.6034686,88.3902268 69.091339,89.0111592 67.5847652,89.6461597 C67.4523497,89.7034019 67.2847469,89.8324395 67.2528005,89.9600217 C67.0703819,90.6988343 66.9231506,91.4478341 66.7476769,92.2715399 C67.0226938,92.2225444 67.275487,92.1871318 67.5231874,92.13183 C68.1565595,91.9930904 68.7922466,91.9280866 69.4256187,92.1095153 C69.5432185,92.1434725 69.6385947,92.2594123 69.7441568,92.3375139 C69.6691522,92.4355048 69.6061853,92.5490191 69.517754,92.6305164 C69.091802,93.0249056 68.6315886,93.3824269 68.236657,93.8083477 C67.8144089,94.2662854 67.3162303,94.5554071 66.7486029,94.7184019 C65.7244661,95.0109193 65.7235401,94.9997619 65.4327816,96.0558323 C65.2582339,96.6898625 65.1188735,97.3268034 65.1827663,98.0636756 C65.5346397,98.0132249 65.8707714,97.9831485 66.2004212,97.9157191 C67.9505284,97.559168 69.6969316,97.174966 71.4525947,96.8484914 C71.703536,96.8019214 71.9975355,97.0299201 72.2762563,97.1128728 C72.3776514,97.1429492 72.5221047,97.1720554 72.5971093,97.1216046 C73.7800521,96.3250647 74.9541981,95.515427 76.130196,94.7082147 C76.1741802,94.676683 76.2112195,94.6359343 76.3102997,94.5476455 C75.6949842,94.4719693 75.1435615,94.4166675 74.5967688,94.3312893 C74.2254497,94.2721067 73.8559827,94.1886689 73.4929975,94.0877674 C71.9415136,93.6599061 71.4160184,92.2991908 71.5799173,90.8123485 C71.6840904,89.8683371 72.1822691,89.1144863 72.6924855,88.3780992 C73.6152272,87.0474603 74.7310363,85.9234755 76.0954717,85.0973442 C76.2737233,84.9896512 76.5705008,84.9712173 76.7681981,85.0425275 C77.5538944,85.3277684 78.3233859,85.6605494 79.0956554,85.9841134 C79.2947417,86.0685214 79.492439,86.1703931 79.6725426,86.2940945 C80.1577575,86.6297862 80.2350771,86.9247291 80.080901,87.5209213 C79.866999,88.3494781 79.4808642,89.0392952 78.7618387,89.4986883 C78.3303308,89.7747121 78.2289357,89.7810185 77.8553017,89.4923819 C78.0080888,88.9781722 78.1719878,88.4872475 78.2979214,87.9856504 C78.4011685,87.5771933 78.0242935,86.7903554 77.6594564,86.62445 C77.5825998,86.5900077 77.4599071,86.62445 77.3719388,86.6632583 C76.7107872,86.9528651 76.1176953,87.3588967 75.6301654,87.9094892 C74.902806,88.7327098 74.1661869,89.5510794 73.4934605,90.4228104 C73.2165917,90.7822721 73.0642675,91.2625246 72.9142583,91.7107602 C72.7290618,92.2632931 72.8624033,92.5630871 73.4022512,92.7280222 C73.9370062,92.8905319 74.4953737,92.9914334 75.0495743,93.0554671 C75.9612042,93.1602495 76.8668152,93.2621212 77.7284421,93.6288594 C77.8580796,93.6841612 78.0562399,93.6104255 78.2067121,93.5507578 C79.4114155,93.0705053 80.612878,92.5790955 81.8161924,92.0920516 C81.8666585,92.0716772 81.9249954,92.0726474 82,92.0595496 C81.9856473,92.1124259 81.9865733,92.1522044 81.9680536,92.1701532 C81.2809745,92.8100047 80.4642578,93.2446575 79.6868954,93.7433439 C79.4350281,93.9043982 79.1850128,94.0688483 78.8224906,94.3060639 C79.0178729,94.4646928 79.1961246,94.5757815 79.333633,94.7276189 C80.1003466,95.5726692 80.0596034,96.5986631 79.174827,97.3175865 C78.4460786,97.9103829 77.6608453,98.4294437 76.8950577,98.969849 C76.0413017,99.5718624 75.0935585,99.897852 74.0712736,99.9837153 C73.3323395,100.045809 72.6336856,99.9483027 72.0697622,99.3753955 C71.9804048,99.2851663 71.8961404,99.1832945 71.8308586,99.0726909 C71.7428903,98.9223088 71.704925,98.6540466 71.596122,98.6220298 C71.386387,98.5609067 71.1363717,98.599715 70.9141358,98.6506509 C69.7793441,98.9072706 68.6501083,99.1896009 67.5143906,99.4437951 C66.9814875,99.5631306 66.4416397,99.6882873 65.8994768,99.7207892 C64.8271889,99.785308 64.0803839,99.2410218 64.0160281,98.0389354 C63.9595432,96.9775289 64.1211272,95.9345564 64.3776244,94.9090476 C64.4308684,94.6970574 64.4327203,94.5398838 64.2637285,94.367187 C63.9419495,94.0397421 63.9951935,93.5973277 64.0178801,93.1806238 C64.021121,93.1175604 64.1539996,93.0181141 64.235949,93.0084121 C64.8906187,92.9240041 65.1887852,92.4995385 65.3739817,91.8708444 C65.5809388,91.1664741 65.8749383,90.4882994 66.1332874,89.7941163 M73.6985656,97.9535571 C73.7156963,97.9972165 73.731901,98.0413609 73.7476427,98.0850202 C74.2944355,97.9802378 74.8453951,97.8953447 75.386632,97.7672774 C76.5339245,97.4946492 77.5543573,96.9556992 78.4034834,96.0912448 C78.5048785,95.988888 78.6224783,95.8399612 78.6284972,95.708013 C78.6437759,95.3597087 77.8562277,94.9172943 77.5765809,95.1118208 C76.4579939,95.8923524 75.3444998,96.6806456 74.2351726,97.4757302 C74.0425682,97.6139847 73.8772803,97.793473 73.6985656,97.9535571" id="Fill-4" fill="#1D1D1B"/>
                    <path d="M55.3945118,86.1320324 C55.5293011,86.2504041 55.5960057,86.3102703 55.6636303,86.3678688 C55.9276885,86.5905527 56.181626,86.6331847 56.5234295,86.465378 C57.3997898,86.0358838 58.3566556,85.9832741 59.3172016,86.0036831 C60.2069028,86.0236384 61.0690021,86.1728503 61.7765308,86.7511028 C62.8626655,87.6391173 63.2224102,88.7702247 62.8686459,90.1226553 C62.6041277,91.1299486 62.1233946,92.0406397 61.6136796,92.9422601 C60.7658413,94.4407279 59.6346235,95.7015452 58.2687895,96.752831 C57.2815616,97.5152173 56.2782326,98.26173 55.2385611,98.9501907 C55.0453478,99.077633 54.6331595,98.9297818 54.3391993,98.8485997 C54.132645,98.7919082 54.088482,98.6027856 54.0866419,98.3642281 C54.0756011,97.1047714 53.9960157,95.8453147 54.0001559,94.5858579 C54.0061363,92.7467881 54.2108504,90.9235918 54.5365528,89.1117338 C54.5963569,88.7802024 54.5770356,88.4341579 54.5935968,88.0949164 C54.5945168,88.0726934 54.5885364,88.0482027 54.597277,88.0291543 C54.8539747,87.4137122 55.1134325,86.8009913 55.3945118,86.1320324 M56.2773126,96.4122289 C56.3187154,96.4258349 56.3596582,96.4408014 56.4015211,96.4553144 C58.6161134,95.0158057 60.5183442,93.2851298 61.6012587,90.8301643 C61.8625567,90.24012 62.0520897,89.6088042 62.1887191,88.9788491 C62.3501902,88.2423141 62.0576101,87.7556749 61.343641,87.511675 C60.9305326,87.3697197 60.485682,87.2867234 60.049112,87.2518015 C58.8916724,87.1601882 57.7977171,87.4622401 56.7235432,87.8527306 C56.53125,87.9225745 56.5064083,88.0123737 56.5427508,88.2051245 C56.7686263,89.3942839 57.0230238,90.5843503 56.8836343,91.8052569 C56.7594257,92.8842081 56.6066952,93.9599846 56.4650055,95.0375752 C56.4042813,95.4956419 56.3398769,95.9532551 56.2773126,96.4122289" id="Fill-6" fill="#1D1D1B"/>
                    <g id="Group-10" transform="translate(88.000000, 80.000000)">
                        <mask id="mask-4" fill="white">
                            <use xlink:href="#path-3"/>
                        </mask>
                        <g id="Clip-9"/>
                        <path d="M6.34030894,10.4085909 C6.78694022,10.4085909 7.22949888,10.3981364 7.67251006,10.4117727 C8.04673911,10.4235909 8.15941508,10.6367727 8.08429777,10.9949545 C8.01823073,11.3072273 7.98429218,11.6263182 7.92229777,12.0299545 C8.10556592,11.9185909 8.22774469,11.8781364 8.30286201,11.7945 C8.90153799,11.1267727 9.68710223,11.0722273 10.4794542,11.1890455 C10.7188341,11.2240455 11.055052,11.5108636 11.1075436,11.7381364 C11.3089123,12.6058636 11.4265659,13.4940455 11.5473872,14.3781364 C11.6166218,14.8899545 11.6311022,15.4099545 11.7931022,15.9781364 C11.9288564,15.8122273 12.0750184,15.6531364 12.1985547,15.4785909 C12.9175994,14.4704091 13.6610799,13.4767727 14.329443,12.4349545 C14.5335268,12.1163182 14.5213089,11.6608636 14.6181469,11.2708636 C14.6611358,11.0999545 14.6873816,10.8222273 14.7905547,10.7849545 C15.5082419,10.5240455 16.2471972,10.2167727 17.0042531,10.6199545 C17.1766609,10.7113182 17.3947726,10.9790455 17.3735045,11.1354091 C17.2187447,12.2458636 17.0083257,13.3499545 16.8128397,14.4545 C16.6463145,15.3881364 16.4648564,16.3199545 16.3155268,17.2558636 C16.2824933,17.4622273 16.3155268,17.6972273 16.3874765,17.8940455 C16.4558061,18.0808636 16.5847726,18.2995 16.7472251,18.3767727 C16.8363704,18.4190455 17.1065212,18.2385909 17.1983816,18.0945 C17.8640296,17.0495 18.5495883,16.0135909 19.1315212,14.9222273 C19.3948844,14.4290455 19.2568676,13.8672273 18.5667838,13.4558636 C19.3442028,13.4576818 19.3460128,13.0404091 19.3966944,12.5458636 C19.5677447,10.8508636 19.8075771,9.16359091 20.0229737,7.47313636 C20.0365492,7.36904545 20.0650575,7.26586364 20.1071413,7.06677273 C19.8587112,7.09404545 19.6591525,7.10495455 19.463214,7.13995455 C19.0229179,7.21859091 18.5780966,7.28313636 18.1486609,7.4045 C17.7952475,7.50359091 17.4676274,7.68995455 17.1196441,7.81222727 C16.4675715,8.04222727 15.818214,8.29040909 15.1507559,8.45677273 C14.7905547,8.54722727 14.6276497,8.35540909 14.8887503,7.99722727 C15.1770017,7.60177273 15.1150073,7.32495455 14.6810464,7.04268182 C13.9217279,6.5495 13.4678564,5.79768182 13.1352587,4.98995455 C15.7458117,4.96131818 18.2626944,4.3845 20.8035603,4.00722727 C20.9899961,3.9795 21.2004151,3.7295 21.2972531,3.53177273 C21.7601749,2.58268182 22.1764877,1.61131818 22.639862,0.663136364 C22.7109067,0.5195 22.9344486,0.408136364 23.1073089,0.369954545 C23.3100352,0.325863636 23.5340296,0.388136364 23.7489737,0.386772727 C24.8024263,0.378590909 25.037281,0.860863636 25.2200966,1.86313636 C25.3033592,2.31677273 25.2884263,2.78859091 25.3205547,3.30177273 C26.0984263,3.20995455 26.8400966,3.12495455 27.5813145,3.03404545 C30.1443536,2.72086364 32.7182531,2.47677273 35.2917,2.75313636 C36.7709682,2.91131818 38.2267056,3.30540909 39.6887782,3.60722727 C39.876119,3.64540909 40.0897056,3.73040909 40.2155045,3.86359091 C40.7748117,4.45586364 41.4354821,4.41995455 42.1395939,4.24995455 C42.4518285,4.1745 42.7749235,4.09177273 43.0925883,4.09313636 C43.7179626,4.09586364 43.9709179,3.75995455 44.1826944,3.20995455 C44.5229849,2.32586364 44.9614709,1.47859091 45.3863816,0.631318182 C45.4529011,0.4995 45.6619626,0.396772727 45.8217,0.367681818 C46.0271413,0.330409091 46.2493257,0.389954545 46.4638173,0.389045455 C47.521795,0.384045455 47.732214,0.758590909 47.9562084,1.8995 C48.0417335,2.33404545 48.009605,2.79177273 48.0344933,3.30177273 C48.8137223,3.21086364 49.5513201,3.10040909 50.2929905,3.04177273 C52.1315547,2.89677273 53.9705715,2.71904545 55.8136609,2.65768182 C57.7291525,2.59404545 59.6387615,2.81359091 61.4981413,3.28222727 C62.2027056,3.45995455 62.8443704,3.90677273 63.4991581,4.26268182 C63.6683983,4.35404545 63.7751916,4.56222727 63.9955659,4.81313636 C62.8832866,4.63859091 61.9049514,4.49813636 60.9324989,4.32904545 C58.2866497,3.86677273 55.6534709,3.81813636 53.0252698,4.47222727 C51.571795,4.83495455 50.1020296,5.13131818 48.6481022,5.49268182 C47.9521358,5.66495455 47.3987112,6.00222727 47.2263034,6.8195 C47.0122642,7.83813636 46.7018397,8.83586364 46.4217335,9.83859091 C46.0389067,11.2063182 45.318957,12.3663182 44.2908453,13.3422273 C44.1369905,13.4890455 43.9885659,13.7231364 43.9768006,13.9245 C43.8862978,15.5072273 44.0437726,17.0531364 44.8275268,18.4695 C44.9637335,18.7149545 45.1519793,18.9508636 45.367376,19.1285909 C45.8420631,19.5222273 46.2316777,19.5090455 46.6289849,19.0367727 C47.0443927,18.5449545 47.4398899,18.0217727 47.750767,17.4604091 C48.3050966,16.4535909 48.9042251,15.4463182 49.2698564,14.3663182 C49.6074318,13.3681364 49.6594709,12.2731364 49.8490743,11.2222273 C49.8775827,11.0645 49.936862,10.8172273 50.0382251,10.7835909 C50.7590799,10.5435909 51.4935101,10.1908636 52.253281,10.6158636 C52.4238788,10.7122273 52.6220799,10.9599545 52.6189123,11.1345 C52.5967391,12.3176818 52.3980855,13.4672273 52.0374318,14.6085909 C51.7650184,15.4704091 51.6971413,16.4004091 51.5677223,17.3035909 C51.5364989,17.5249545 51.5917056,17.7726818 51.6591302,17.9931364 C51.8084598,18.4840455 52.1202419,18.5631364 52.4075883,18.1454091 C52.9763983,17.3176818 53.4890966,16.4499545 54.0244207,15.5990455 C54.0339235,15.5835909 54.0348285,15.5626818 54.0456888,15.5495 C55.3783425,14.0263182 55.2453034,12.0840455 55.5435101,10.2663182 C55.6647838,9.52177273 55.6647838,9.52177273 56.4155045,9.5445 C57.1173536,9.56586364 57.600186,9.96540909 57.8454486,10.6449545 C58.3576944,12.0599545 58.2038397,13.5131364 58.1726162,14.9676818 C58.1436553,16.2713182 57.857214,17.5831364 58.2260128,18.8822273 C58.2708117,19.0376818 58.3169682,19.1926818 58.3694598,19.3454091 C58.3857503,19.3945 58.4264765,19.4349545 58.5405101,19.6085909 C58.7812475,18.9640455 59.0111246,18.4458636 59.169957,17.9054091 C59.7460073,15.9572273 60.3071246,14.0049545 60.8451637,12.0458636 C60.9125883,11.7995 60.8981078,11.4408636 60.7632587,11.2440455 C60.2270296,10.4581364 60.1482922,9.56586364 60.062767,8.67177273 C60.0229458,8.25631818 59.9107223,7.73768182 60.1025883,7.44268182 C60.2600631,7.19859091 60.8134877,7.20359091 61.196767,7.11768182 C61.5809514,7.02995455 61.9764486,6.88859091 62.3565603,6.91631818 C62.7611078,6.94677273 63.1756106,7.10495455 63.5385268,7.29631818 C63.6702084,7.36631818 63.7525659,7.71359091 63.7095771,7.90040909 C63.4588844,8.98359091 63.1439346,10.0526818 62.9013872,11.1381364 C62.8624709,11.3099545 63.025376,11.6358636 63.1855659,11.7254091 C63.8788173,12.1095 64.6756944,12.2899545 65.4160073,12.0558636 C65.8087894,11.9317727 66.0961358,11.4076818 66.3857447,11.0295 C66.8527391,10.4199545 67.2568341,9.76313636 67.7351413,9.1645 C67.9790464,8.8595 68.3252196,8.69540909 68.7713983,8.74631818 C69.3890799,8.81677273 70.024862,8.7545 70.6375659,8.84995455 C71.3235771,8.95813636 71.6036832,9.32177273 71.5597894,10.0199545 C71.5326385,10.4545 71.4552587,10.9395 71.2335268,11.2976818 C70.7457168,12.0849545 70.2112978,12.8613182 69.5859235,13.5381364 C68.9157503,14.2626818 67.9794989,14.5035909 66.9427894,14.5099545 C66.9658676,15.3890455 67.2093201,16.1481364 67.7713425,16.7545 C68.2148061,17.2322273 69.0496944,17.3258636 69.6062866,16.8622273 C70.4796385,16.1331364 71.2896385,15.3135909 72.048052,14.4617727 C72.5557726,13.8913182 72.908281,13.2135909 73.0476553,12.4081364 C73.1395156,11.8822273 73.4838788,11.3931364 73.7513145,10.9072273 C74.2056385,10.0826818 75.0572698,9.98859091 75.6229123,10.7426818 C75.7532363,10.9158636 75.6410128,11.3417727 75.5355771,11.6090455 C75.2332978,12.3731364 74.8414207,13.1045 74.559052,13.8763182 C74.4391358,14.2026818 74.5042978,14.5972273 74.4852922,14.9604091 C74.5373313,14.9822273 74.5893704,15.0040455 74.640957,15.0258636 C74.8844095,14.8590455 75.1314821,14.6958636 75.3713145,14.5235909 C76.8750184,13.4417727 78.417186,12.4254091 80.1512196,11.7495 C80.3634486,11.6667727 80.6286218,11.7190455 80.8689067,11.7090455 C80.7919793,12.0195 80.814605,12.4358636 80.6186665,12.6204091 C79.9697615,13.2372273 79.2375939,13.7635909 78.5470575,14.3367727 C77.9949905,14.7954091 77.4497112,15.2622273 76.9152922,15.7422273 C76.3532698,16.2495 76.4075715,16.3858636 77.0840799,16.6808636 C77.8189626,17.0017727 78.5610855,17.3381364 79.227186,17.7795 C80.1571022,18.3949545 80.3729514,19.3940455 79.6643145,20.2472273 C78.9864486,21.0631364 78.1696609,21.8022273 77.2999291,22.4090455 C75.7917,23.4645 74.0848173,24.1431364 72.2996497,24.5872273 C70.9787615,24.9158636 69.6804989,25.0172273 68.5573592,23.9799545 C68.2740855,23.7181364 67.9061916,23.5481364 67.5840017,23.3408636 C68.9424486,20.1876818 71.3054765,17.9117727 73.8526777,15.7258636 C73.6255156,15.4272273 73.4069514,15.1395 73.1634989,14.8204091 C72.8051078,15.3267727 72.4838229,15.7767727 72.1675156,16.2295 C70.8380296,18.1322273 68.1197782,18.5708636 66.2536106,17.1822273 C65.1888453,16.3895 64.7562419,15.0549545 65.1517391,13.7867727 C65.2191637,13.5704091 65.2707503,13.3481364 65.3182642,13.1676818 C64.3738676,13.0958636 63.4747223,13.0272273 62.4588285,12.9490455 C62.2950184,13.4458636 62.1312084,14.0845 61.8805156,14.6881364 C61.2071749,16.3113182 60.5225212,17.9313182 59.7822084,19.5240455 C59.6138732,19.8872273 59.250052,20.2249545 58.8934709,20.4213182 C58.1753313,20.8158636 57.3843369,20.5881364 56.8548955,19.8704091 C56.1258955,18.8840455 55.7779123,17.7304091 55.5380799,16.5413182 C55.478348,16.2476818 55.443052,15.9490455 55.2751693,15.6131364 C55.1131693,15.9140455 54.9575045,16.2176818 54.7896218,16.5149545 C54.391862,17.2149545 54.0389011,17.9481364 53.5732642,18.5999545 C53.0383927,19.3463182 52.333376,19.8108636 51.3183872,19.6281364 C50.3540799,19.4558636 49.8898006,18.8249545 49.5902363,17.9826818 C49.5676106,17.9195 49.5219067,17.8640455 49.4970184,17.8222273 C48.9757223,18.4049545 48.5182307,19.0404091 47.9403704,19.5335909 C47.1005045,20.2513182 46.113119,20.5540455 44.9840966,20.2513182 C44.1591637,20.0299545 43.5799458,19.4831364 43.1808285,18.8076818 C42.7061413,18.0017727 42.3875715,17.1035909 41.9861916,16.2122273 C41.7278061,16.5290455 41.3875156,16.8854091 41.1169123,17.2895 C40.2906218,18.5231364 39.1367112,18.8585909 37.785052,18.4658636 C37.2538006,18.3113182 36.7958564,17.9072273 36.198538,17.5558636 C34.8106777,18.8322273 33.2363816,18.5881364 31.5969235,17.4695 C31.4245156,17.7476818 31.2634207,18.0408636 31.0711022,18.3131364 C30.4498006,19.1895 29.7325659,19.8563182 28.5234486,19.6185909 C27.8211469,19.4799545 27.3767782,19.0676818 27.062281,18.4667727 C26.9550352,18.2613182 26.8731302,18.0426818 26.7504989,17.7613182 C26.399348,18.2145 26.1088341,18.6604091 25.749538,19.0417727 C24.779348,20.0722273 23.6340352,20.6476818 22.1850855,20.2258636 C21.2022251,19.9395 20.6184821,19.1790455 20.1428899,18.3404091 C19.8817894,17.8799545 19.7175268,17.3640455 19.4763369,16.7958636 C19.1921581,17.2604091 18.9364877,17.7026818 18.6563816,18.1285909 C18.4699458,18.4122273 18.2776274,18.7017727 18.0391525,18.9399545 C16.7472251,20.2326818 14.8873927,19.7735909 14.3470911,18.0208636 C14.2009291,17.5463182 14.1534151,17.0413182 14.053862,16.5149545 C13.2529123,17.4022273 12.2935827,17.8735909 11.0939682,17.5640455 C9.71561061,17.2081364 8.84180615,16.3181364 9.03186201,14.7585909 C9.09385642,14.2445 9.09883408,13.7222273 9.07982849,13.1808636 C7.95352123,14.6926818 7.76391788,16.6381364 6.80820838,18.2604091 C6.34619162,18.0772273 5.87557709,17.8917727 5.41627542,17.7095 C5.44930894,17.3695 5.48007989,17.0572273 5.51039832,16.7445 C5.48007989,16.7326818 5.44840391,16.7213182 5.41808547,16.7095 C5.12530894,17.1958636 4.8420352,17.6867727 4.53794581,18.1640455 C4.37413575,18.4199545 4.19675028,18.6740455 3.98859385,18.8935909 C2.69711899,20.2504091 0.775744693,19.7845 0.230917877,17.9845 C-0.145573743,16.7431364 0.0340743017,15.4854091 0.152180447,14.2322273 C0.250375978,13.1822273 0.35671676,12.1331364 0.474370391,11.0854091 C0.486588268,10.9776818 0.577543575,10.8181364 0.667593855,10.7885909 C1.40835922,10.5363182 2.16043743,10.2099545 2.93333128,10.6317727 C3.09940391,10.7217727 3.27045419,10.9863182 3.2709067,11.1708636 C3.27181173,12.3799545 2.99487318,13.5390455 2.65910782,14.6990455 C2.40751006,15.5695 2.30071676,16.4917727 2.22967207,17.3981364 C2.2047838,17.7181364 2.47764972,18.0626818 2.61476145,18.3949545 C2.86816927,18.1708636 3.18854916,17.9913182 3.36457709,17.7163182 C4.03384525,16.6740455 4.65243184,15.5990455 5.29862179,14.5408636 C5.68642626,13.9054091 5.9760352,13.2526818 6.02309665,12.4845 C6.06472793,11.8240455 6.21858268,11.1708636 6.34030894,10.4085909 M39.2530073,4.69859091 C39.243957,4.63677273 39.2353592,4.5745 39.2276665,4.51222727 C38.8226665,4.44177273 38.4208341,4.34813636 38.0126665,4.30540909 C36.7252642,4.17222727 35.4351469,3.94540909 34.1486497,3.96995455 C32.909214,3.99222727 31.6648006,4.22904545 30.4402978,4.46586364 C28.9008453,4.76268182 27.371348,5.12177273 25.8558788,5.52768182 C25.427348,5.64222727 24.9300352,5.92631818 24.7064933,6.28586364 C24.4146218,6.75268182 24.3422196,7.36631818 24.2159682,7.92586364 C23.7435436,10.0026818 23.1263145,11.9967727 21.4357223,13.4608636 C21.2999682,13.5785909 21.2221358,13.8481364 21.2343536,14.0395 C21.295443,14.9876818 21.3094709,15.9522273 21.5108397,16.8731364 C21.6628844,17.5722273 21.9882419,18.2713182 22.3869067,18.8685909 C22.8665715,19.5876818 23.4530296,19.5572273 24.0218397,18.9195 C24.2005827,18.7190455 24.3820408,18.5104091 24.5105547,18.2776818 C25.1078732,17.1917727 25.6839235,16.0949545 26.2730966,15.0049545 C26.9206441,13.8045 27.1233704,12.5085909 27.1152251,11.1608636 C27.1143201,11.0199545 27.2505268,10.7799545 27.3654654,10.7513182 C27.9143648,10.6131364 28.4781972,10.4581364 29.0365994,10.4572273 C29.4094709,10.4572273 29.9018061,10.5785909 29.9108564,11.1408636 C29.9167391,11.5481364 29.9126665,11.9681364 29.8266888,12.3626818 C29.6357279,13.2372273 29.3343536,14.0904091 29.183214,14.9704091 C29.0216665,15.9176818 28.957862,16.8835909 28.9035603,17.8449545 C28.893605,18.0245 29.1298173,18.2176818 29.2529011,18.4040455 C29.4221413,18.2913182 29.6493034,18.2149545 29.7524765,18.0581364 C30.2832754,17.2472273 30.8317223,16.4408636 31.2824263,15.5849545 C31.9240911,14.3658636 32.440862,13.0785909 33.0983648,11.8685909 C33.5060799,11.1181364 33.7830184,10.2095 34.7016218,9.86268182 C35.2862698,9.64177273 35.8772531,9.42313636 36.4827168,9.27131818 C37.6311972,8.98177273 38.4633704,9.61040909 38.5371302,10.7799545 C38.5507056,10.9949545 38.5135994,11.2185909 38.5629235,11.4235909 C38.6321581,11.7140455 38.7805827,11.9845 38.8584151,12.2740455 C38.9226721,12.5181364 38.9905492,12.7831364 38.9606832,13.0263182 C38.8321693,14.0754091 38.6267279,15.1167727 38.5384877,16.1690455 C38.5059067,16.5722273 38.7154207,16.9949545 38.8154263,17.4095 C38.8837559,17.4154091 38.9529905,17.4222273 39.0222251,17.4285909 C39.1597894,17.2695 39.309119,17.1176818 39.4349179,16.9485909 C40.0888006,16.0695 40.7517335,15.1967727 41.3734877,14.2963182 C41.5246274,14.0776818 41.5305101,13.7595 41.6146777,13.4454091 C41.9441078,13.4540455 42.0934374,13.2004091 42.1196832,12.7499545 C42.1852978,11.6585909 42.2662978,10.5663182 42.3948117,9.48040909 C42.4898397,8.68859091 42.6699402,7.90677273 42.8251525,7.04904545 C42.565862,7.08586364 42.3758061,7.10995455 42.1875603,7.13995455 C41.2517615,7.28768182 40.3218453,7.47586364 39.3819737,7.57859091 C37.820348,7.74859091 36.377281,6.58495455 35.9487503,5.03677273 C37.0370464,4.92540909 38.1448006,4.81177273 39.2530073,4.69859091 M71.141214,22.7308636 C71.1991358,22.7145 71.3950743,22.6831364 71.5688397,22.6026818 C72.7290855,22.0658636 73.9422754,21.6131364 75.0269514,20.9495 C76.0985045,20.2935909 77.0492363,19.4331364 78.0320966,18.6372273 C78.3800799,18.3535909 78.2805268,18.0849545 77.8782419,17.9117727 C77.2211916,17.6285909 76.5759067,17.3140455 75.906186,17.0640455 C75.7324207,16.9981364 75.420186,17.0476818 75.2862419,17.1708636 C74.089795,18.2740455 72.8842978,19.3722273 71.7579905,20.5449545 C71.3113592,21.0099545 71.0380408,21.6522273 70.7208285,22.2326818 C70.5832642,22.4849545 70.5325827,22.7845 71.141214,22.7308636 M34.2278397,17.0572273 C34.9238061,15.9104091 35.6215827,14.7631364 36.3125715,13.6126818 C36.3546553,13.5422273 36.3804486,13.4254091 36.3523927,13.3535909 C36.1713872,12.8926818 36.3582754,12.6072273 36.8107894,12.4426818 C36.6406441,11.7608636 36.4795492,11.1172273 36.3143816,10.4545 C34.9428117,11.0399545 33.6042754,14.7785909 34.2278397,17.0572273 M66.9989011,13.4740455 C68.0826721,12.7881364 69.0076106,11.9454091 69.653348,10.8249545 C69.7596888,10.6408636 69.8691972,10.4367727 69.8927279,10.2317727 C69.9099235,10.0826818 69.8284709,9.8745 69.7185101,9.77359091 C69.6442978,9.7045 69.4031078,9.71995455 69.3026497,9.79177273 C68.0383257,10.6885909 67.3007279,11.9331364 66.9989011,13.4740455 M23.3761022,2.56222727 C23.3326609,2.54313636 23.288767,2.52495455 23.2439682,2.50586364 L22.7163369,3.63768182 C22.7783313,3.6645 22.8394207,3.69131818 22.9014151,3.71677273 C23.4037056,3.47631818 23.2598061,2.96540909 23.3761022,2.56222727 M46.1072363,2.54131818 C46.0601749,2.52904545 46.0140184,2.51677273 45.9674095,2.50404545 C45.7999793,2.87859091 45.6334542,3.25222727 45.4664765,3.62722727 C45.5307335,3.65540909 45.594538,3.68359091 45.6592475,3.71222727 C46.1221693,3.46313636 45.9778173,2.94040909 46.1072363,2.54131818" id="Fill-8" fill="#1D1D1B" mask="url(#mask-4)"/>
                    </g>
                    <path d="M88.4125555,88 C88.2320077,87.9251579 88.0554039,87.9049065 88.0093905,87.8168571 C87.9668829,87.7362918 88.0812591,87.5830856 88.1022938,87.4589359 C88.1662743,87.0737193 88.2359517,86.688943 88.2710096,86.301085 C88.3104496,85.8625985 88.1724094,85.3378236 88.6811861,85.1058131 C89.1794455,84.8764442 89.687784,85.0428577 90.0742965,85.3853703 C91.3328725,86.4996366 91.3407605,86.6237864 89.8968163,87.4923947 C89.4511437,87.7605054 88.8950389,87.8410707 88.4125555,88" id="Fill-11" fill="#1D1D1B"/>
                    <path d="M138.419226,88 C138.026653,87.9941732 137.883018,87.9143911 138.103758,87.5239968 C138.241665,87.2806167 138.271185,86.9664187 138.316567,86.6795618 C138.346087,86.4895191 138.309958,86.2909604 138.312161,86.0959873 C138.330666,84.9714186 138.855419,84.7867545 139.781117,85.2058345 C140.242864,85.4133575 140.592259,85.8992214 140.953109,86.2963389 C141.031536,86.3832924 141.006421,86.6898707 140.916099,86.7925117 C140.244186,87.5571647 139.361667,87.8937733 138.419226,88" id="Fill-13" fill="#1D1D1B"/>
                    <path d="M115.414905,88 C115.231199,87.9166649 115.082755,87.8894713 115.009621,87.7999957 C114.969571,87.751749 115.066212,87.5982369 115.086672,87.4894627 C115.1585,87.1083141 115.251224,86.7284813 115.284744,86.3442625 C115.324358,85.8881123 115.182878,85.3481884 115.705699,85.1047621 C116.199789,84.8753712 116.711292,85.0459889 117.090457,85.3907332 C118.315016,86.5056695 118.341571,86.6078647 116.935047,87.4653393 C116.479266,87.7438541 115.909865,87.8324525 115.414905,88" id="Fill-15" fill="#1D1D1B"/>
                    <path d="M47.808319,67.7700612 C47.6357973,69.8034464 47.527856,71.8446223 47.2704573,73.8665504 C47.0522681,75.5754738 44.7273769,76.5846048 43.3158358,75.633217 C43.1124078,75.4961915 42.9860149,75.0841985 43.0012374,74.8087726 C43.5543217,64.5259023 44.858844,54.3310215 46.6518702,44.1934257 C47.1749707,41.2379827 48.8905005,40.2774293 51.6877506,41.548696 C52.2113124,41.7860847 52.7524032,42.3085231 52.9687472,42.8295866 C53.6888177,44.5692147 54.4425622,46.3276323 54.8632568,48.1506672 C56.3306137,54.5170829 57.0829743,60.9994432 57.8367188,67.4790539 C58.2062104,70.6668445 58.2002137,70.7314619 55.0362397,71.0330097 C53.1043659,71.2176962 52.5277559,70.8047866 52.276354,68.8474758 C52.0858421,67.3644841 51.9949684,65.8682023 51.9257752,64.3742118 C51.8828754,63.4439049 51.4612582,63.1817692 50.5834273,63.3082542 C47.9134927,63.6932088 47.6796197,63.9503035 47.7054518,66.6692744 C47.7091421,67.034523 47.7054518,67.398855 47.7054518,67.7636453 C47.7400484,67.7659367 47.7737224,67.7686864 47.808319,67.7700612 M49.9283984,51.8434816 C49.8435214,51.8448565 49.7591057,51.8476061 49.6742287,51.8494393 C49.4186752,53.8204984 49.1382122,55.7888079 48.9310939,57.7644499 C48.8974199,58.0866202 49.24846,58.7479172 49.3199596,58.7341688 C49.9413145,58.6136413 50.9741382,58.7841212 50.8703484,57.7983625 C50.6609236,55.8030146 50.2540677,53.8278309 49.9283984,51.8434816" id="Fill-17" fill="#1D1D1B"/>
                    <path d="M130.280122,58.0218003 C130.402224,63.4656101 130.523862,68.9085134 130.644571,74.3514167 C130.650607,74.6047542 130.650607,74.8567321 130.646893,75.1100695 C130.636214,75.893195 130.206768,76.1252322 129.477406,75.9394212 C128.834862,75.7749104 128.196961,75.5958974 127.556738,75.4264015 C126.462927,75.1368082 126.33479,74.2399301 126.291613,73.3706971 C126.158833,70.7045355 125.967556,68.0347484 126.004697,65.3685868 C126.088729,59.3818464 126.311112,53.3973719 126.440643,47.4115378 C126.47407,45.9100941 126.342682,44.4059312 126.348254,42.9022216 C126.350111,42.6334754 126.645848,42.1399432 126.824591,42.1313324 C128.546089,42.0538356 130.291729,41.896576 131.989086,42.1000618 C132.925974,42.2120016 133.834079,42.8931576 134.654901,43.4573886 C135.213413,43.8403406 135.586219,44.4752705 136.061163,44.978773 C137.811446,46.8337108 137.49528,48.893494 136.419576,51.0081141 C136.108054,51.6208372 135.204592,52.0006168 134.504479,52.3577366 C133.467773,52.8870714 132.371176,53.2999344 131.174763,53.8156733 C131.471893,54.3767319 131.703098,54.8145208 131.936159,55.2523097 C134.171136,59.4416685 136.438147,63.6147121 138.607662,67.8357947 C138.962825,68.5260146 139.045929,69.4383014 138.97861,70.2259589 C138.882971,71.3358398 137.825838,71.7568604 136.956732,71.0263059 C136.277975,70.4552769 135.642859,69.7152052 135.28166,68.9230157 C133.766296,65.5974516 132.362355,62.2233954 130.914774,58.8692799 C130.780137,58.5561203 130.621358,58.2524779 130.474186,57.9447567 C130.409653,57.970589 130.344655,57.9959681 130.280122,58.0218003 M129.928673,49.8850904 C131.525748,48.9111687 132.815943,48.1049302 134.126102,47.3326814 C134.728719,46.9773745 134.47523,46.652885 134.169743,46.2930461 C133.396276,45.3830253 130.862312,44.9384384 129.845105,45.5611319 C129.691897,45.6544907 129.540547,45.9078281 129.553546,46.0746048 C129.645007,47.2488399 129.778715,48.4208089 129.928673,49.8850904" id="Fill-19" fill="#1D1D1B"/>
                    <path d="M33.1823497,75.1007613 C31.8972192,75.4190147 30.6176461,75.9595045 29.3237165,75.9955672 C27.8635305,76.0370393 26.3334148,75.785502 24.9510312,75.3252516 C24.4439257,75.1566585 23.9683116,74.0161753 24.0016556,73.3440566 C24.1452197,70.5573108 24.445315,67.7750729 24.7685658,65.0000475 C25.5711356,58.0895311 26.4339097,51.1866779 27.2360163,44.2766123 C27.4999891,41.9978999 28.2261456,41.5362972 30.4662091,42.4198336 C31.5961977,42.8647573 32.3177231,43.6301882 32.5715075,44.8473046 C33.0684246,47.2278942 33.1031578,49.5918047 32.8081567,52.0093585 C32.1398889,57.4877346 31.6022181,62.9805359 31.0122158,68.4670261 C30.9853555,68.7163096 30.9709991,68.9682978 30.933024,69.2153273 C30.6116256,71.3484365 30.6412647,71.3854008 32.8780863,71.2790158 C33.2439433,71.261886 33.6227673,71.0905881 33.9654688,71.1500916 C34.4693325,71.2384452 35.1278751,71.3322083 35.3974051,71.668493 C36.0003745,72.4222036 36.4306037,73.3134033 36.8802836,74.1739497 C37.2072393,74.8005392 36.8228579,75.1643218 36.2305402,75.236898 C35.2473575,75.3563557 34.2530601,75.3847551 33.2633939,75.4510203 C33.2365335,75.3347181 33.2096731,75.2179651 33.1823497,75.1007613" id="Fill-21" fill="#1D1D1B"/>
                    <path d="M97.2311653,75.1006438 C95.941454,75.4182284 94.6573199,75.9582124 93.3578487,75.9952038 C91.8924579,76.0371574 90.3489873,75.803029 88.9723657,75.326201 C88.4416089,75.1434997 87.9656938,73.9489486 88.0019452,73.2402478 C88.1357963,70.5231854 88.4490451,67.8124386 88.7655472,65.106203 C89.5816672,58.1197934 90.444728,51.1392483 91.2654956,44.1537409 C91.5183254,42.0082405 92.1401754,41.608102 94.2785399,42.3298852 C95.5677864,42.7652106 96.3625273,43.5704499 96.6348772,44.9228911 C97.1061446,47.2727463 97.1349598,49.6032036 96.8458786,51.9846368 C96.1794116,57.467933 95.6365709,62.9643116 95.0440009,68.4557278 C95.0128619,68.73993 94.9961306,69.0281921 94.9515135,69.311492 C94.6340819,71.3162446 94.7256398,71.6460093 96.7812768,71.2079772 C99.1585283,70.7018267 99.8914561,71.979834 100.661565,73.5736214 C101.289457,74.8732821 101.096116,75.247256 99.637232,75.3478545 C98.8643348,75.4001838 98.0849309,75.3564257 97.3083156,75.3564257 C97.2827537,75.2711651 97.2567271,75.1859044 97.2311653,75.1006438" id="Fill-23" fill="#1D1D1B"/>
                    <path d="M62.220599,63.2863913 C62.6677858,57.2095073 63.0998834,51.1312456 63.5703898,45.0557392 C63.7025339,43.352485 63.7308832,43.3382491 62.0838824,43.1770622 C61.6897361,43.1384876 61.1904233,43.1513458 60.9389379,42.9208164 C60.5201004,42.5359884 60.1588759,42.0051278 60.0020404,41.4687566 C59.9567731,41.314458 60.6755641,40.7229801 61.078398,40.6816502 C63.9677367,40.3886665 66.8630196,40.1305838 69.7624178,40.0010832 C70.3463212,39.9753668 71.1080933,40.4116276 71.5251019,40.8745234 C72.4496537,41.9008844 71.9631437,42.9878628 70.5946059,43.1954311 C68.4665821,43.520101 68.4482922,43.5191826 68.3861067,45.6417064 C68.2896278,48.9949451 68.228814,52.3495614 68.1359931,55.7037185 C68.0216815,59.8509519 67.8364968,63.9968076 67.7889432,68.1440411 C67.7624229,70.4038723 67.929775,72.6682957 68.0596329,74.9267492 C68.1446807,76.4095769 67.964983,76.6635266 66.5392893,76.7732807 C66.0326605,76.8127738 65.5328904,76.9280385 65.0271761,76.9785529 C63.8223324,77.0974914 63.2553471,76.7356245 62.9704827,75.5439435 C62.7862125,74.7687769 62.6517821,73.9619239 62.6435517,73.1674699 C62.6078865,69.8817369 62.6284626,66.5955446 62.6284626,63.3088932 C62.4926605,63.3015456 62.3564011,63.2941981 62.220599,63.2863913" id="Fill-25" fill="#1D1D1B"/>
                    <path d="M117.58053,51.6913226 C117.581456,53.5921773 117.627289,55.4952859 117.563863,57.3947883 C117.529142,58.4171119 117.962933,58.7204733 118.936532,58.6785527 C119.668005,58.6474502 120.405496,58.7844813 121.141135,58.7898904 C122.174456,58.796201 122.450842,59.4191513 122.490193,60.2593678 C122.530008,61.0779479 122.209178,61.671148 121.325393,61.8208003 C120.420774,61.9727064 119.509211,62.1624764 118.598573,62.1769007 C117.857841,62.1872682 117.478216,62.4049852 117.436087,63.1216935 C117.281922,65.734749 117.084703,68.3478045 116.999981,70.964466 C116.968963,71.9457704 117.845805,72.2410182 118.673572,72.3537082 C119.547173,72.4731596 120.435125,72.5060651 121.318448,72.5304061 C122.035106,72.5502395 122.264733,72.9049876 122.285103,73.5522789 C122.344825,75.4513306 121.482798,76.2919979 119.576802,75.9097535 C117.818953,75.5563577 116.08564,75.050605 114.380568,74.496621 C113.010214,74.0512702 112.109299,73.000098 112.066707,71.6140111 C111.984764,68.8999854 111.937542,66.166577 112.175502,63.4656234 C112.612534,58.5018548 113.238452,53.5525104 113.843538,48.6036169 C114.078257,46.6847318 114.471771,44.7847785 114.787971,42.8758101 C114.896766,42.2199544 115.314816,41.9382294 115.955086,42.0112525 C118.398576,42.2911745 120.842065,42.5665888 123.273517,42.9226892 C123.573051,42.9673144 123.990638,43.4865899 124,43.796262 C124.007768,44.0676195 123.560551,44.5251408 123.242036,44.5972624 C122.536952,44.7577329 121.786498,44.7442101 121.053174,44.7699035 C120.391607,44.7937937 119.726338,44.7378995 119.067549,44.782074 C117.474513,44.8911579 117.515253,44.917302 117.565252,46.4201357 C117.624511,48.1753949 117.579604,49.934711 117.58053,51.6913226" id="Fill-27" fill="#1D1D1B"/>
                    <path d="M79.5781382,51.6377015 C79.5781382,53.5775914 79.6068281,55.5183842 79.5647187,57.4578226 C79.5452836,58.3526007 79.9126998,58.675389 80.8057897,58.6537193 C81.612347,58.6343069 82.421218,58.7593591 83.2300891,58.7756114 C84.2296093,58.7963782 84.4313643,59.4446635 84.4850423,60.2189039 C84.5377947,60.9827609 84.2684796,61.6062163 83.44804,61.7682877 C82.4776724,61.9597034 81.4887952,62.1186145 80.5036199,62.1538278 C79.7942382,62.1795606 79.476798,62.4391456 79.4370022,63.0842707 C79.2792076,65.7022417 79.0867074,68.3184068 78.9964729,70.9386351 C78.9617674,71.9264124 79.82663,72.2320455 80.6553989,72.3476172 C81.5285909,72.4686064 82.4170534,72.4997566 83.2995002,72.5245865 C84.0042545,72.5444504 84.256911,72.8762677 84.28375,73.5344849 C84.362416,75.4260694 83.487373,76.2915032 81.5887472,75.9127348 C79.8312575,75.5610536 78.0996812,75.0509127 76.3940184,74.5005925 C75.0210662,74.0577179 74.1150196,73.0062859 74.0701338,71.6216822 C73.9831385,68.9034888 73.9377899,66.1649801 74.1756387,63.4603303 C74.6184817,58.4167069 75.2473465,53.3879815 75.8586272,48.3597075 C76.0876839,46.4735405 76.4495473,44.5995626 76.8373241,42.737774 C76.9007196,42.4334952 77.4361108,41.9757227 77.7137553,42.0010041 C80.2699358,42.2357592 82.8196379,42.535072 85.3596225,42.8993938 C85.6312514,42.9377673 85.9759933,43.5011795 85.9995931,43.8397686 C86.015789,44.067752 85.5447189,44.5155925 85.2582823,44.544034 C84.0940263,44.6600572 82.915888,44.6519311 81.7433027,44.6916588 C79.5096526,44.765697 79.5378798,44.7647941 79.601738,46.8960997 C79.6480121,48.4752793 79.6100673,50.0571676 79.6100673,51.6377015 L79.5781382,51.6377015 Z" id="Fill-29" fill="#1D1D1B"/>
                    <path d="M108.993677,64.5332629 C108.848719,68.1756696 108.720789,71.0508773 108.628225,73.9283205 C108.605084,74.651705 108.247492,75.0026673 107.610025,75 C106.501008,74.9950668 105.385441,74.9785246 104.286903,74.8435048 C103.246435,74.7151912 102.965687,73.8326441 103.003237,72.9420496 C103.078336,71.2042277 103.293153,69.4749004 103.400562,67.7375256 C103.593985,64.6168679 103.70707,61.490398 103.937169,58.3724228 C104.098719,56.1776794 104.403917,53.9936661 104.632706,51.8042877 C104.700383,51.1595902 105.084609,50.9825443 105.639554,51.0013219 C107.424898,51.0625726 108.80724,52.4829637 108.860507,54.3343453 C108.914212,56.1772323 108.966606,58.0196722 108.988874,59.8625592 C109.010705,61.6737031 108.993677,63.4848471 108.993677,64.5332629" id="Fill-31" fill="#1D1D1B"/>
                    <path d="M109.988492,43.7892711 C109.92526,44.9509325 109.846572,46.1130674 109.803012,47.2756756 C109.780998,47.8740211 109.510273,48.0875131 108.946809,47.9682227 C108.910743,47.9606487 108.874209,47.9554416 108.837207,47.9502345 C105.26813,47.4205282 104.63675,46.5627733 105.162276,42.9348298 C105.237217,42.4160112 105.325741,41.8957724 105.454547,41.3878414 C105.791314,40.070913 106.483584,39.6666511 107.656414,40.280618 C109.656877,41.3281962 110.079827,41.7968371 109.988492,43.7892711" id="Fill-33" fill="#1D1D1B"/>
                    <path d="M38.0575714,41.4427027 C37.7807619,40.2929508 38.5364469,40.123843 39.5890449,40.0304483 C41.6823852,39.8454725 42.3643574,40.4947014 41.8215632,42.2138888 C41.5612488,43.0399329 41.5102169,43.919475 41.2303144,44.7387186 C41.0741258,45.1970778 40.6442204,45.5824442 40.3375133,46 C39.7601823,45.5434542 38.9003716,45.1762227 38.6678928,44.6104142 C38.2616992,43.6184359 38.2400493,42.5049538 38.0575714,41.4427027" id="Fill-35" fill="#1D1D1B"/>
                </g>
            </g>
        </g>
    </g>
</svg>